name Run_400 02_newCOP3_v24.mot
datacolumns 19
datarows 91
range 1.445 1.535
DataType=double
version=3
OpenSimVersion=4.3-2021-08-27-4bc7ad9
endheader
time	R_ground_force_vx	R_ground_force_vy	R_ground_force_vz	R_ground_force_px	R_ground_force_py	R_ground_force_pz	L_ground_force_vx	L_ground_force_vy	L_ground_force_vz	L_ground_force_px	L_ground_force_py	L_ground_force_pz	R_ground_torque_x	R_ground_torque_y	R_ground_torque_z	L_ground_torque_x	L_ground_torque_y	L_ground_torque_z
1.445	0	0	0	0	0	0	0	0	0	0	0	0	0	0	0	0	0	0
1.446	0	0	0	0	0	0	0	0	0	0	0	0	0	0	0	0	0	0
1.447	0	0	0	0	0	0	0	0	0	0	0	0	0	0	0	0	0	0
1.448	0	0	0	0	0	0	0	0	0	0	0	0	0	0	0	0	0	0
1.449	0	0	0	0	0	0	0	0	0	0	0	0	0	0	0	0	0	0
1.45	0	0	0	0	0	0	0	0	0	0	0	0	0	0	0	0	0	0
1.451	0	0	0	0	0	0	0	0	0	0	0	0	0	0	0	0	0	0
1.452	0	0	0	0	0	0	0	0	0	0	0	0	0	0	0	0	0	0
1.453	0	0	0	0	0	0	0	0	0	0	0	0	0	0	0	0	0	0
1.454	0	0	0	0	0	0	0	0	0	0	0	0	0	0	0	0	0	0
1.455	0	0	0	0	0	0	0	0	0	0	0	0	0	0	0	0	0	0
1.456	0	0	0	0	0	0	0	0	0	0	0	0	0	0	0	0	0	0
1.457	0	0	0	0	0	0	0	0	0	0	0	0	0	0	0	0	0	0
1.458	0	0	0	0	0	0	0	0	0	0	0	0	0	0	0	0	0	0
1.459	0	0	0	0	0	0	0	0	0	0	0	0	0	0	0	0	0	0
1.46	0	0	0	0	0	0	0	0	0	0	0	0	0	0	0	0	0	0
1.461	0	0	0	0	0	0	0	0	0	0	0	0	0	0	0	0	0	0
1.462	0	0	0	0	0	0	0	0	0	0	0	0	0	0	0	0	0	0
1.463	0	0	0	0	0	0	0	0	0	0	0	0	0	0	0	0	0	0
1.464	0	0	0	0	0	0	0	0	0	0	0	0	0	0	0	0	0	0
1.465	0	0	0	0	0	0	0	0	0	0	0	0	0	0	0	0	0	0
1.466	0	0	0	0	0	0	0	0	0	0	0	0	0	0	0	0	0	0
1.467	0	0	0	0	0	0	0	0	0	0	0	0	0	0	0	0	0	0
1.468	0	0	0	0	0	0	0	0	0	0	0	0	0	0	0	0	0	0
1.469	-2.326663	10.090303	-0.427196	0	0	0	0	0	0	0	0	0	0	0	0	0	0	0
1.47	-2.482464	10.795719	-0.805497	0	0	0	0	0	0	0	0	0	0	0	0	0	0	0
1.471	-2.61994	11.661905	-1.212118	0	0	0	0	0	0	0	0	0	0	0	0	0	0	0
1.472	-2.73108	12.720654	-1.642049	0	0	0	0	0	0	0	0	0	0	0	0	0	0	0
1.473	-2.807844	14.007923	-2.090548	0	0	0	0	0	0	0	0	0	0	0	0	0	0	0
1.474	-2.842314	15.56419	-2.553397	0	0	0	0	0	0	0	0	0	0	0	0	0	0	0
1.475	-2.826826	17.434793	-3.02715	0	0	0	0	0	0	0	0	0	0	0	0	0	0	0
1.476	-2.754101	19.670277	-3.50936	0	0	0	0	0	0	0	0	0	0	0	0	0	0	0
1.477	-2.617355	22.326693	-3.998755	0	0	0	0	0	0	0	0	0	0	0	0	0	0	0
1.478	-2.410395	25.465872	-4.495379	0	0	0	0	0	0	0	0	0	0	0	0	0	0	0
1.479	-2.127706	29.15563	-5.000653	0	0	0	0	0	0	0	0	0	0	0	0	0	0	0
1.48	-1.764523	33.469872	-5.517368	1.110535	0	-0.317454	0	0	0	0	0	0	-0	5.878658	-0	0	0	0
1.481	-1.316908	38.48859	-6.049598	1.118795	0	-0.316651	0	0	0	0	0	0	-0	5.515038	-0	0	0	0
1.482	-0.781821	44.297707	-6.602517	1.134055	0	-0.315477	0	0	0	0	0	0	-0	5.122608	-0	0	0	0
1.483	-0.157205	50.988758	-7.182127	1.16913	0	-0.313204	0	0	0	0	0	0	-0	4.708114	-0	0	0	0
1.484	0.557913	58.65836	-7.794904	1.319382	0	-0.304441	0	0	0	0	0	0	-0	4.278539	-0	0	0	0
1.485	1.363296	67.407448	-8.447345	0.672736	0	-0.340733	0	0	0	0	0	0	-0	3.840993	-0	0	0	0
1.486	2.257341	77.340271	-9.145441999999999	0.963369	0	-0.324069	0	0	0	0	0	0	-0	3.402592	-0	0	0	0
1.487	3.236884	88.563126	-9.894088999999999	1.009225	0	-0.321255	0	0	0	0	0	0	-0	2.970351	-0	0	0	0
1.488	4.296976	101.182755	-10.696426	1.027681	0	-0.320002	0	0	0	0	0	0	-0	2.551075	-0	0	0	0
1.489	5.430626	115.304543	-11.553154	1.037533	0	-0.319248	0	0	0	0	0	0	-0	2.15127	-0	0	0	0
1.49	6.628514	131.03035	-12.461821	1.043596	0	-0.31872	0	0	0	0	0	0	-0	1.777045	-0	0	0	0
1.491	7.878697	148.456161	-13.416127	1.047664	0	-0.318315	0	0	0	0	0	0	-0	1.434033	-0	0	0	0
1.492	9.166323	167.669403	-14.405254	1.050558	0	-0.317987	0	0	0	0	0	0	-0	1.127328	-0	0	0	0
1.493	10.473357	188.746201	-15.413265	1.052706	0	-0.31771	0	0	0	0	0	0	-0	0.861416	-0	0	0	0
1.494	11.778374	211.748459	-16.418606	1.054352	0	-0.31747	0	0	0	0	0	0	-0	0.640132	-0	0	0	0
1.495	13.056405	236.720764	-17.393742	1.055647	0	-0.317259	0	0	0	0	0	0	-0	0.466618	-0	0	0	0
1.496	14.27889	263.687592	-18.304972	1.056687	0	-0.31707	0	0	0	0	0	0	-0	0.343301	-0	0	0	0
1.497	15.413744	292.650391	-19.112448	1.057538	0	-0.316899	0	0	0	0	0	0	-0	0.271872	-0	0	0	0
1.498	16.425552	323.585022	-19.770443	1.058244	0	-0.316744	0	0	0	0	0	0	-0	0.253282	-0	0	0	0
1.499	17.275911	356.439636	-20.2279	1.058838	0	-0.316601	0	0	0	0	0	0	-0	0.287747	-0	0	0	0
1.5	17.923918	391.132843	-20.429251	1.059344	0	-0.316471	0	0	0	0	0	0	-0	0.37476	-0	0	0	0
1.501	18.32678	427.552612	-20.315565	1.05978	0	-0.31635	0	0	0	0	0	0	-0	0.513116	-0	0	0	0
1.502	18.440588	465.555725	-19.825983	1.06016	0	-0.316239	0	0	0	0	0	0	-0	0.70094	-0	0	0	0
1.503	18.221148	504.968231	-18.899437	1.060494	0	-0.316137	0	0	0	0	0	0	-0	0.935728	-0	0	0	0
1.504	17.624935	545.586304	-17.476624	1.06079	0	-0.316042	0	0	0	0	0	0	-0	1.214391	-0	0	0	0
1.505	16.610071	587.178406	-15.502171	1.061056	0	-0.315956	0	0	0	0	0	0	-0	1.533304	-0	0	0	0
1.506	15.137325	629.487854	-12.926943	1.061295	0	-0.315876	0	0	0	0	0	0	-0	1.888363	-0	0	0	0
1.507	13.17111	672.23645	-9.710394000000001	1.061513	0	-0.315803	0	0	0	0	0	0	-0	2.275047	-0	0	0	0
1.508	10.680428	715.128723	-5.822875	1.061713	0	-0.315737	0	0	0	0	0	0	-0	2.688478	-0	0	0	0
1.509	7.639755	757.856628	-1.247803	1.061897	0	-0.315677	0	0	0	0	0	0	-0	3.123489	-0	0	0	0
1.51	4.029837	800.104919	4.016427	1.062068	0	-0.315623	0	0	0	0	0	0	-0	3.57469	-0	0	0	0
1.511	-0.161621	841.556702	9.954867	1.062227	0	-0.315576	0	0	0	0	0	0	-0	4.03654	-0	0	0	0
1.512	-4.93938	881.898865	16.534897	1.062376	0	-0.315535	0	0	0	0	0	0	-0	4.50341	-0	0	0	0
1.513	-10.300237	920.828186	23.705612	1.062515	0	-0.3155	0	0	0	0	0	0	-0	4.969656	-0	0	0	0
1.514	-16.232731	958.056213	31.397804	1.062645	0	-0.31547	0	0	0	0	0	0	-0	5.429683	-0	0	0	0
1.515	-22.71702	993.315125	39.524532	1.062767	0	-0.315447	0	0	0	0	0	0	-0	5.87801	-0	0	0	0
1.516	-29.724928	1026.361816	47.982319	1.06288	0	-0.315429	0	0	0	0	0	0	-0	6.309334	-0	0	0	0
1.517	-37.220173	1056.982788	56.652939	1.062984	0	-0.315417	0	0	0	0	0	0	-0	6.718587	-0	0	0	0
1.518	-45.158821	1084.99707	65.40574599999999	1.063077	0	-0.31541	0	0	0	0	0	0	-0	7.100992	-0	0	0	0
1.519	-53.489906	1110.260254	74.10050200000001	1.06316	0	-0.31541	0	0	0	0	0	0	-0	7.452113	-0	0	0	0
1.52	-62.156292	1132.665771	82.59050000000001	1.063231	0	-0.315414	0	0	0	0	0	0	-0	7.767901	-0	0	0	0
1.521	-71.095726	1152.147461	90.726097	1.063288	0	-0.315424	0	0	0	0	0	0	-0	8.044737	-0	0	0	0
1.522	-80.242058	1168.67981	98.35826900000001	1.063328	0	-0.315439	0	0	0	0	0	0	-0	8.279465999999999	-0	0	0	0
1.523	-89.526642	1182.278564	105.342293	1.06335	0	-0.315459	0	0	0	0	0	0	-0	8.469424999999999	-0	0	0	0
1.524	-98.879807	1192.999634	111.541336	1.063351	0	-0.315483	0	0	0	0	0	0	-0	8.612473	-0	0	0	0
1.525	-108.232422	1200.937988	116.829834	1.063326	0	-0.315511	0	0	0	0	0	0	-0	8.706996999999999	-0	0	0	0
1.526	-117.517471	1206.225342	121.096642	1.063274	0	-0.315543	0	0	0	0	0	0	-0	8.751937	-0	0	0	0
1.527	-126.671494	1209.026978	124.247818	1.063188	0	-0.315578	0	0	0	0	0	0	-0	8.746779	-0	0	0	0
1.528	-135.636002	1209.538696	126.208908	1.063066	0	-0.315615	0	0	0	0	0	0	-0	8.691561999999999	-0	0	0	0
1.529	-144.358551	1207.982056	126.926895	1.062902	0	-0.315654	0	0	0	0	0	0	-0	8.586864	-0	0	0	0
1.53	-152.793762	1204.599854	126.371483	1.06269	0	-0.315693	0	0	0	0	0	0	-0	8.433790999999999	-0	0	0	0
1.531	-160.90387	1199.651123	124.535965	1.062425	0	-0.315732	0	0	0	0	0	0	-0	8.233957999999999	-0	0	0	0
1.532	-168.659027	1193.406128	121.437462	1.0621	0	-0.315769	0	0	0	0	0	0	-0	7.989461	-0	0	0	0
1.533	-176.037292	1186.140747	117.116707	1.061709	0	-0.315804	0	0	0	0	0	0	-0	7.702849	-0	0	0	0
1.534	-183.024323	1178.131714	111.637207	1.061245	0	-0.315835	0	0	0	0	0	0	-0	7.377084	-0	0	0	0
1.535	-189.612701	1169.651367	105.083977	1.060701	0	-0.31586	0	0	0	0	0	0	-0	7.015508	-0	0	0	0
